<?xml version="1.0" encoding="UTF-8" standalone="no"?>
<svg
   xmlns:dc="http://purl.org/dc/elements/1.1/"
   xmlns:cc="http://creativecommons.org/ns#"
   xmlns:rdf="http://www.w3.org/1999/02/22-rdf-syntax-ns#"
   xmlns:svg="http://www.w3.org/2000/svg"
   xmlns="http://www.w3.org/2000/svg"
   xmlns:sodipodi="http://sodipodi.sourceforge.net/DTD/sodipodi-0.dtd"
   xmlns:inkscape="http://www.inkscape.org/namespaces/inkscape"
   sodipodi:docname="icon - Kopie.svg"
   inkscape:version="1.0 (4035a4fb49, 2020-05-01)"
   width="210mm"
   viewBox="0 0 210 297"
   version="1.1"
   id="svg8"
   height="297mm">
  <defs
     id="defs2" />
  <sodipodi:namedview
     inkscape:pagecheckerboard="false"
     inkscape:document-rotation="0"
     inkscape:zoom="0.7"
     inkscape:window-y="0"
     inkscape:window-x="0"
     inkscape:window-width="1904"
     inkscape:window-maximized="0"
     inkscape:window-height="1036"
     inkscape:pageshadow="2"
     inkscape:pageopacity="1"
     inkscape:document-units="mm"
     inkscape:cy="602.73769"
     inkscape:cx="112.90166"
     inkscape:current-layer="layer1"
     showguides="true"
     showgrid="false"
     pagecolor="#009688"
     id="base"
     borderopacity="1.0"
     bordercolor="#666666" />
  <metadata
     id="metadata5">
    <rdf:RDF>
      <cc:Work
         rdf:about="">
        <dc:format>image/svg+xml</dc:format>
        <dc:type
           rdf:resource="http://purl.org/dc/dcmitype/StillImage" />
        <dc:title></dc:title>
      </cc:Work>
    </rdf:RDF>
  </metadata>
  <g
     inkscape:label="Layer 1"
     inkscape:groupmode="layer"
     id="layer1">
    <rect
       y="-0.84523809"
       x="-0.75595242"
       width="213.17857"
       id="rect817"
       height="302.38095"
       style="fill:#48a998;fill-opacity:0;stroke-width:0.26458332" />
    <path
       transform="scale(0.26458333)"
       d="M 408.57227 54.587891 C 317.27809 54.587893 225.9831 89.827143 190.31641 160.30664 C 130.03748 279.42137 225.61089 505.19122 342.76758 572.30664 C 225.61089 639.42206 130.03748 865.18996 190.31641 984.30469 C 261.64979 1125.2637 555.49276 1125.2637 626.82617 984.30469 C 687.10506 865.19005 591.53352 639.42223 474.37695 572.30664 C 591.53352 505.19105 687.10506 279.42128 626.82617 160.30664 C 591.15947 89.827145 499.86645 54.587888 408.57227 54.587891 z "
       inkscape:transform-center-y="-4.8247413"
       inkscape:transform-center-x="-2.051311"
       style="fill:#ffffff;fill-opacity:1;stroke-width:0.611091"
       id="path827-6" />
    <path
       ry="10.95805"
       rx="33.775425"
       id="path938"
       cy="97.349655"
       cx="108.22489"
       style="fill:#16b19f;fill-opacity:1;stroke-width:0.15333305" />
    <g
       id="g24">
      <g
         id="g30">
        <path
           transform="scale(0.26458333)"
           d="M 408.57227 307.18359 C 351.10614 307.18359 293.63829 323.31712 271.1875 355.58203 C 227.93261 417.74533 312.16994 543.34252 398.6875 552.47266 L 398.6875 901.14062 C 365.5235 905.12933 333.31545 924.40735 313.41602 947.08984 C 285.19513 977.01767 272.28665 1014.6181 292.8457 1038.6641 C 331.48938 1083.8618 490.67466 1083.8618 529.31836 1038.6641 C 549.87741 1014.6181 536.96893 977.01767 508.74805 947.08984 C 487.83818 923.25561 453.33841 903.17905 418.41992 900.65234 L 418.41992 552.47656 C 504.94982 543.37675 589.21583 417.75374 545.95508 355.58203 C 523.50428 323.31712 466.0384 307.18359 408.57227 307.18359 z "
           inkscape:transform-center-y="2.2087242"
           inkscape:transform-center-x="-1.2912199"
           style="fill:#009688;fill-opacity:1;stroke-width:0.328038"
           id="path827-7" />
      </g>
    </g>
  </g>
</svg>
